<?xml version="1.0" encoding="UTF-8" standalone="no"?>
<!-- Created with Inkscape (http://www.inkscape.org/) -->

<svg
   xmlns:dc="http://purl.org/dc/elements/1.1/"
   xmlns:cc="http://creativecommons.org/ns#"
   xmlns:rdf="http://www.w3.org/1999/02/22-rdf-syntax-ns#"
   xmlns:svg="http://www.w3.org/2000/svg"
   xmlns="http://www.w3.org/2000/svg"
   xmlns:sodipodi="http://sodipodi.sourceforge.net/DTD/sodipodi-0.dtd"
   xmlns:inkscape="http://www.inkscape.org/namespaces/inkscape"
   width="200mm"
   height="200mm"
   viewBox="0 0 200 200"
   version="1.1"
   id="svg8"
   inkscape:version="0.92.3pre0 (0ab9bec, 2018-03-03)"
   sodipodi:docname="icon_button.svg">
  <defs
     id="defs2" />
  <sodipodi:namedview
     id="base"
     pagecolor="#ffffff"
     bordercolor="#666666"
     borderopacity="1.0"
     inkscape:pageopacity="0.0"
     inkscape:pageshadow="2"
     inkscape:zoom="0.99503205"
     inkscape:cx="357.84094"
     inkscape:cy="346.96078"
     inkscape:document-units="mm"
     inkscape:current-layer="layer1"
     showgrid="false"
     inkscape:window-width="1920"
     inkscape:window-height="1064"
     inkscape:window-x="1920"
     inkscape:window-y="0"
     inkscape:window-maximized="1" />
  <metadata
     id="metadata5">
    <rdf:RDF>
      <cc:Work
         rdf:about="">
        <dc:format>image/svg+xml</dc:format>
        <dc:type
           rdf:resource="http://purl.org/dc/dcmitype/StillImage" />
        <dc:title></dc:title>
      </cc:Work>
    </rdf:RDF>
  </metadata>
  <g
     inkscape:label="Layer 1"
     inkscape:groupmode="layer"
     id="layer1"
     transform="translate(0,-97)">
    <path
       style="fill:#ffffff;fill-opacity:0.95675677;fill-rule:evenodd;stroke:#e5e5e5;stroke-width:0.26458332px;stroke-linecap:butt;stroke-linejoin:miter;stroke-opacity:1"
       d="m 97.055079,115.65325 c -4.240607,0.31237 -7.635574,-0.187 -11.234458,0.33237 -1.160986,1.92763 -1.318656,1.94659 -2.393139,3.78914 0.235997,3.71083 5.378913,14.9343 3.124378,17.61617 -2.441643,2.90444 -9.58483,2.94227 -9.639034,5.71694 -0.101014,5.17077 14.159655,13.42879 15.090071,23.3331 0.865312,9.21127 1.538916,20.28106 1.595427,29.98071 -1.922875,6.88728 -8.035705,8.11201 -6.847036,12.23161 0.686327,2.37861 6.411865,2.71587 7.910655,6.51465 0.709146,1.79738 1.324879,4.0903 3.323804,4.32095 l 3.456753,0.39886 c 0.18533,1.9624 0.21221,5.1913 -0.0665,7.24588 -4.813878,0.21984 -13.105271,-0.0108 -18.015022,-0.0665 -0.318864,-0.46046 -0.841721,-1.3289 -1.329522,-2.12724 -2.281831,-0.13137 -3.423745,0.64727 -5.25161,3.05791 -14.349119,6.72072 -24.151671,10.42279 -38.090796,17.81559 -2.555178,1.35517 -3.239841,8.88222 -3.722661,12.23159 -0.254723,1.76704 3.222794,3.51606 4.919231,5.65047 1.696437,2.13441 2.782599,3.33499 3.589708,4.78629 0.843789,1.51725 0.197578,2.13143 1.329522,3.19084 1.383964,1.29528 4.676395,2.20075 6.248752,2.45962 10.984487,2.70842 19.916206,3.31915 22.601868,3.45676 9.689005,0.52313 33.16789,1.45884 44.87136,1.19657 11.70347,-0.26227 41.16438,-1.82166 44.00716,-2.32667 4.32535,-1.53142 7.53294,-2.50339 8.77485,-3.25733 1.2419,-0.75393 2.34432,-2.19938 2.65904,-4.38742 1.26193,-1.56238 3.16338,-3.45735 5.05218,-4.65332 0.48404,-1.89204 -0.16967,-4.16049 -0.19943,-6.51466 -0.0359,-2.84184 -0.32071,-4.47557 -1.32952,-5.71694 -12.91175,-9.80869 -24.08181,-18.5648 -40.08508,-22.00358 -1.74963,-0.44031 -2.26343,-2.78364 -3.98856,-3.52323 -2.80262,-0.36963 -5.93535,-2.0901 -8.97427,-1.39601 -1.15185,0.97068 -1.23163,1.6166 -2.45962,2.32666 -1.85571,-0.12294 -6.52979,0.19445 -10.30379,-0.0665 -0.004,-2.48881 -0.22724,-4.82161 -0.0665,-7.51179 2.61256,0.25206 4.50175,-0.38321 5.65047,-2.792 4.10716,-7.56114 10.5072,-6.38637 18.41387,-7.91065 3.7024,-0.71377 7.71926,-1.30645 11.16799,-2.59258 0.72051,-1.27768 -0.55644,-3.26194 -1.79486,-4.9857 -3.5567,-2.21841 -14.02126,0.22489 -19.80987,1.6619 -3.69863,-2.10773 -5.59615,-3.37137 -5.91637,-7.11294 -0.35503,-24.60237 2.67833,-52.48919 2.19371,-76.47633 -0.51819,-1.61887 -1.76794,-2.70655 -3.52324,-3.82677 -2.07539,0.298 -4.44183,0.37932 -6.97998,0.39885 -1.42578,-0.95283 -1.67647,-1.04195 -2.85847,-1.6619 -0.30897,-0.93276 -0.86174,-1.48399 -1.28524,-2.77285 -1.28769,-0.69057 -2.31316,-0.85571 -4.16581,-0.35153 -1.00323,1.28039 -1.03702,1.68839 -2.1937,2.59256 -1.378291,0.19156 -2.1711,0.56772 -3.456761,1.72839 z"
       id="path4591"
       inkscape:connector-curvature="0"
       sodipodi:nodetypes="cccssscssscccccsszsscczczccsccccccccsccccccccccccc" />
  </g>
</svg>
